<svg width="42" height="42" viewBox="0 0 42 42" fill="none" xmlns="http://www.w3.org/2000/svg">
<rect width="42" height="42" fill="#C4C2DD"/>
<path d="M11.7805 25.0831C11.7805 29.7028 10.2123 30.9268 8.27778 30.9268C6.34326 30.9268 4.77502 29.6633 4.77502 25.0831C4.77502 21.8558 6.34326 20.3055 8.27778 20.3055C10.2123 20.3055 11.7805 21.8558 11.7805 25.0831Z" fill="#AD612D"/>
<path d="M36.4127 25.0831C36.4127 29.7028 34.8445 30.9268 32.91 30.9268C30.9755 30.9268 29.4072 29.6633 29.4072 25.0831C29.4072 21.8558 30.9755 20.3055 32.91 20.3055C34.8445 20.3055 36.4127 21.8558 36.4127 25.0831Z" fill="#AD612D"/>
<path d="M33.475 25.2772C33.475 38.4973 27.7079 42 20.5939 42C13.4798 42 7.71277 38.3843 7.71277 25.2772C7.71277 16.0414 13.4798 11.6052 20.5939 11.6052C27.7079 11.6052 33.475 16.0414 33.475 25.2772Z" fill="#B06735"/>
<path d="M12.4585 20.7575C12.4585 20.5079 12.6608 20.3055 12.9105 20.3055H17.2042C17.4538 20.3055 17.6561 20.5079 17.6561 20.7575V20.7575C17.6561 21.0071 17.4538 21.2095 17.2042 21.2095H12.9105C12.6608 21.2095 12.4585 21.0071 12.4585 20.7575V20.7575Z" fill="#582D0F"/>
<path d="M23.5316 20.7575C23.5316 20.5079 23.734 20.3055 23.9836 20.3055H28.2773C28.5269 20.3055 28.7293 20.5079 28.7293 20.7575V20.7575C28.7293 21.0071 28.5269 21.2095 28.2773 21.2095H23.9836C23.734 21.2095 23.5316 21.0071 23.5316 20.7575V20.7575Z" fill="#582D0F"/>
<path d="M19.464 31.3788C19.464 31.2539 19.5652 31.1528 19.69 31.1528H21.2719C21.3967 31.1528 21.4978 31.2539 21.4978 31.3788V31.3788C21.4978 31.5036 21.3967 31.6047 21.2719 31.6047H19.69C19.5652 31.6047 19.464 31.5036 19.464 31.3788V31.3788Z" fill="#582D0F"/>
<path d="M16.7522 25.1642C16.7522 26.1002 16.0439 26.8591 15.1703 26.8591C14.2966 26.8591 13.5884 26.1002 13.5884 25.1642C13.5884 24.2281 14.2966 23.4693 15.1703 23.4693C16.0439 23.4693 16.7522 24.2281 16.7522 25.1642Z" fill="#3C200D"/>
<path d="M27.8254 25.1642C27.8254 26.1002 27.1172 26.8591 26.2435 26.8591C25.3699 26.8591 24.6616 26.1002 24.6616 25.1642C24.6616 24.2281 25.3699 23.4693 26.2435 23.4693C27.1172 23.4693 27.8254 24.2281 27.8254 25.1642Z" fill="#3C200D"/>
<path fill-rule="evenodd" clip-rule="evenodd" d="M15.0602 32.8129C15.2271 32.6272 15.5129 32.6121 15.6985 32.779C17.0922 34.0322 18.6565 34.7685 20.5939 34.7685C22.2687 34.7685 24.0349 34.2196 25.2996 33.2989C25.5014 33.152 25.7841 33.1966 25.931 33.3984C26.0779 33.6002 26.0334 33.8829 25.8316 34.0298C24.3999 35.0719 22.444 35.6724 20.5939 35.6724C18.3923 35.6724 16.6205 34.8236 15.0941 33.4511C14.9085 33.2842 14.8933 32.9985 15.0602 32.8129Z" fill="#582D0F"/>
<path fill-rule="evenodd" clip-rule="evenodd" d="M13.5098 9.37778C13.4898 9.36224 13.4699 9.3465 13.4502 9.33058L13.4405 9.34895C13.4637 9.35838 13.4868 9.36799 13.5098 9.37778ZM12.2175 4.59726C12.6314 3.3128 13.5429 2.07972 14.8633 1.18955C17.5643 -0.631364 20.9537 -0.327834 22.4337 1.86751C22.5155 1.98874 22.5896 2.1132 22.6564 2.24048C25.1417 1.09323 27.9136 1.56224 29.2133 3.49C29.3523 3.69624 29.4695 3.91183 29.5656 4.13471C31.3537 3.9671 33.0313 4.5999 33.9589 5.97583C34.4932 6.76834 34.7056 7.69904 34.6318 8.65056C35.1696 9.04843 35.6683 9.5409 36.1003 10.1209C37.6664 12.2236 37.8787 14.8364 36.7949 16.6006C37.2591 17.4261 37.5427 18.529 37.5427 19.7406C37.5427 22.1362 36.4339 24.1072 35.012 24.3484C34.3568 26.6542 33.4193 29.6441 32.7826 30.6741C32.3384 32.1798 32.3092 26.645 32.3674 22.3108C32.1217 21.7078 31.9601 21.0049 31.9098 20.2472C30.1032 19.9245 28.7293 18.3028 28.7293 16.3508C28.7293 16.3163 28.7298 16.2819 28.7306 16.2477C28.6205 16.1195 28.5137 15.9862 28.4108 15.848C28.3854 15.814 28.3604 15.7798 28.3358 15.7455C28.1321 15.7721 27.924 15.7859 27.7124 15.7859C25.8396 15.7859 24.2397 14.7075 23.6017 13.1867C22.7127 14.7321 20.9404 15.7859 18.899 15.7859C17.6831 15.7859 16.5627 15.412 15.6675 14.7831C15.0028 16.1065 13.59 17.0445 11.9303 17.1346C11.9803 17.3559 12.0065 17.585 12.0065 17.8197C12.0065 19.381 10.8454 20.6958 9.26529 21.0893C9.21108 21.7023 9.08368 22.2764 8.8981 22.787C8.95596 27.0775 8.90222 32.1621 8.39075 30.7008C7.69782 29.7559 6.70856 27.183 5.94306 24.9708C4.63473 24.566 3.64509 22.6818 3.64509 20.4185C3.64509 19.5368 3.79528 18.7126 4.056 18.011C3.05104 17.1993 2.69758 15.4335 3.28355 13.668C3.78508 12.1568 4.83831 11.057 5.94083 10.7402C5.36611 9.30077 5.98638 7.30325 7.57279 5.87409C9.024 4.56673 10.8642 4.11294 12.2175 4.59726Z" fill="#291508"/>
<path fill-rule="evenodd" clip-rule="evenodd" d="M11.6583 23.625C11.2678 23.9668 11.2155 24.4351 11.2155 25.2772C11.2155 26.042 11.3525 26.6168 11.6627 26.9978C11.9534 27.3548 12.4874 27.65 13.548 27.65C14.4961 27.65 15.2935 27.6497 15.9719 27.6053C16.6525 27.5607 17.1687 27.4737 17.5627 27.321C17.9414 27.1742 18.2015 26.9694 18.3889 26.6734C18.5846 26.3643 18.7285 25.9123 18.788 25.2282C18.8399 24.6325 18.7803 24.2207 18.6643 23.9331C18.5535 23.6584 18.3794 23.4663 18.1317 23.3208C17.5857 23 16.6938 22.9043 15.3964 22.9043C13.0852 22.9043 12.0945 23.2432 11.6583 23.625ZM10.9141 22.7747C11.6927 22.0932 13.0749 21.7744 15.3964 21.7744C16.6575 21.7744 17.856 21.8482 18.7042 22.3466C19.1536 22.6107 19.5025 22.9906 19.7122 23.5104C19.8545 23.8633 19.926 24.2639 19.9357 24.7122H22.0732C22.1077 24.053 22.2559 23.3309 22.8913 22.7747C23.6699 22.0932 25.0521 21.7744 27.3736 21.7744C28.6347 21.7744 29.8332 21.8482 30.6813 22.3466C31.1307 22.6107 31.4797 22.9906 31.6893 23.5104C31.8938 24.0173 31.9521 24.6225 31.8908 25.3262C31.8225 26.1109 31.6482 26.7606 31.3208 27.2778C30.9851 27.808 30.5171 28.154 29.9482 28.3745C29.3946 28.589 28.7437 28.6856 28.0229 28.7328C27.3037 28.7799 26.4705 28.7799 25.5401 28.7799H25.5252C24.2533 28.7799 23.3386 28.4175 22.7636 27.7112C22.3296 27.1781 22.1459 26.5155 22.0863 25.8421H19.8498C19.7579 26.4004 19.5964 26.8785 19.3436 27.2778C19.0079 27.808 18.54 28.154 17.971 28.3745C17.4175 28.589 16.7665 28.6856 16.0457 28.7328C15.3265 28.7799 14.4934 28.7799 13.563 28.7799H13.548C12.2761 28.7799 11.3614 28.4175 10.7865 27.7112C10.2311 27.029 10.0856 26.1349 10.0856 25.2772C10.0856 24.4967 10.0899 23.4961 10.9141 22.7747ZM23.6355 23.625C23.2449 23.9668 23.1927 24.4351 23.1927 25.2772C23.1927 26.042 23.3297 26.6168 23.6399 26.9978C23.9305 27.3548 24.4646 27.65 25.5252 27.65C26.4732 27.65 27.2706 27.6497 27.949 27.6053C28.6296 27.5607 29.1459 27.4737 29.5399 27.321C29.9186 27.1742 30.1786 26.9694 30.3661 26.6734C30.5617 26.3643 30.7056 25.9123 30.7652 25.2282C30.8171 24.6325 30.7575 24.2207 30.6414 23.9331C30.5306 23.6584 30.3565 23.4663 30.1089 23.3208C29.5629 23 28.671 22.9043 27.3736 22.9043C25.0624 22.9043 24.0717 23.2432 23.6355 23.625Z" fill="#572626"/>
</svg>
