<svg width="539" height="179" viewBox="0 0 539 179" fill="none" xmlns="http://www.w3.org/2000/svg">
<path d="M186.1 49.4C161.5 49.4 141.5 69.4 141.5 94C141.5 118.6 161.5 138.6 186.1 138.6C210.7 138.6 230.7 118.6 230.7 94C230.7 69.4 210.7 49.4 186.1 49.4ZM186.1 120.7C171.3 120.7 161.1 110 161.1 94C161.1 78 171.4 67.3 186.1 67.3C200.8 67.3 211.1 78 211.1 94C211.1 110 200.8 120.7 186.1 120.7Z" fill="#FA3913"/>
<path d="M282.1 49.4C257.5 49.4 237.5 69.4 237.5 94C237.5 118.6 257.5 138.6 282.1 138.6C306.7 138.6 326.7 118.6 326.7 94C326.7 69.4 306.7 49.4 282.1 49.4ZM282.1 120.7C267.3 120.7 257.1 110 257.1 94C257.1 78 267.4 67.3 282.1 67.3C296.8 67.3 307.1 78 307.1 94C307.1 110 296.9 120.7 282.1 120.7Z" fill="#FCBD06"/>
<path d="M523 108.5C518.8 116.1 511.1 120.7 501.4 120.7C497.8 120.7 494.3 120.1 491 118.7C485.6 116.4 481.3 112 478.9 106.6L538.9 82.4C537.7 77.8 535.7 73.3 533.2 69.3C521.8 50.7 506.7 49.4 501.4 49.4C473.3 49.4 456.8 69.4 456.8 94C456.8 118.6 476.8 138.6 501.4 138.6C516.2 138.6 530.1 131.3 538.4 119L523 108.5ZM501.5 67.3H502.4C505 67.4 507.6 68.1 509.8 69.6C512.4 71.3 514.6 73.5 516.4 76.1L476.6 92.2C477.2 77.2 487.3 67.3 501.5 67.3Z" fill="#FA3913"/>
<path d="M418.6 52.3H400.3V59.3C393.2 53.5 384.5 50.1 375.4 49.5C350.8 51.1 332.2 72.3 333.7 96.8C335.1 119.2 353 137 375.4 138.5C384 137.9 392.2 134.8 399.1 129.6C399.5 129.3 399.9 129 400.3 128.7V137.1C400.3 150.2 389.7 160.8 376.6 160.8C366.9 160.8 358.1 154.9 354.5 145.8L337 152.7C343.7 168.4 359.1 178.5 376.1 178.5C402.9 178.5 418.6 159.4 418.6 136V52.3ZM400.7 101.2C400.6 101.8 400.4 102.3 400.3 102.9C398.8 108.9 395.1 114.1 389.9 117.4C381.9 122 372 121.8 364.2 116.8C358.9 113.2 355.2 107.2 354 99.7C353.7 97.8 353.6 95.9 353.6 94C353.6 78 363.4 67.3 377.5 67.3C388.8 67.3 397.3 74.1 400.3 85.1C401.1 88 401.5 91 401.4 94C401.5 96.4 401.2 98.9 400.7 101.2Z" fill="#3780FF"/>
<path d="M431 5.79999H449V135.9H431V5.79999Z" fill="#38B137"/>
<path d="M134.3 74.4C134.3 76.9 134.2 79.4 133.9 81.9C132.9 92.5 129.6 102.7 124.2 111.8C119.9 118.7 114 124.6 107 128.8C95.9 135.6 83.1 139.3 70.1 139.2C69.1 139.2 68.1 139.2 67.1 139.1C29.8 137.6 0 107.1 0 69.6C0 52.2 6.6 35.4 18.4 22.6C31 9 48.4 0.8 67 0.1C68 0.1 69 0 70 0C88.8 0 105.4 7.7 118 19.5L104.5 33.2C84.1 14.3 52.3 15.5 33.4 35.8C31.5 37.8 29.8 40 28.3 42.3C23 50.4 20.2 59.8 20.2 69.5C20.4 97.2 43.1 119.5 70.8 119.3C79.7 119.2 88.4 116.8 96.1 112.3C103.7 107.8 109.3 100.7 112 92.3C113.1 88.9 113.8 85.3 114.1 81.7H69V63.9L133.5 64C134 67.4 134.3 70.9 134.3 74.4Z" fill="#3780FF"/>
</svg>
